<?xml version="1.0" standalone="no"?>
<!DOCTYPE svg PUBLIC "-//W3C//DTD SVG 20010904//EN"
 "http://www.w3.org/TR/2001/REC-SVG-20010904/DTD/svg10.dtd">
<svg version="1.0" xmlns="http://www.w3.org/2000/svg"
 width="823.000000pt" height="823.000000pt" viewBox="0 0 823.000000 823.000000"
 preserveAspectRatio="xMidYMid meet">
<metadata>
Created by potrace 1.14, written by Peter Selinger 2001-2017
</metadata>
<g transform="translate(0.000000,823.000000) scale(0.100000,-0.100000)"
fill="#000000" stroke="none">
<path d="M3850 6420 c-307 -43 -661 -156 -1010 -325 -184 -89 -224 -104 -276
-108 -108 -8 -197 -62 -249 -152 -45 -77 -192 -576 -315 -1063 -185 -735 -313
-1124 -519 -1571 -52 -114 -79 -162 -104 -182 -40 -33 -83 -111 -131 -241 -54
-144 -47 -242 21 -341 56 -81 179 -135 276 -122 136 18 211 87 331 305 132
238 341 715 421 960 15 47 29 86 30 88 2 2 38 -6 81 -17 98 -24 204 -41 559
-86 515 -66 711 -100 1038 -182 174 -43 188 -49 184 -67 -2 -12 -20 -93 -40
-181 -20 -88 -63 -303 -96 -478 l-60 -319 -40 -39 c-65 -65 -84 -117 -89 -245
-7 -180 18 -280 89 -352 98 -100 240 -122 366 -59 65 33 117 93 159 181 60
127 69 168 215 917 28 147 55 272 59 278 4 8 27 2 76 -19 320 -144 905 -245
1564 -270 272 -10 574 -32 700 -50 150 -22 230 -5 309 66 71 64 104 136 104
228 0 120 -69 230 -173 275 -91 39 -427 74 -890 91 -339 13 -689 50 -968 101
-106 20 -114 23 -128 51 -9 16 -14 31 -12 33 2 1 62 32 135 69 336 167 764
416 899 522 242 189 352 409 314 633 -38 226 -254 430 -542 511 -229 65 -589
67 -835 5 -227 -58 -330 -116 -667 -378 -33 -26 -79 -56 -102 -66 -22 -10 -58
-36 -79 -56 -119 -120 -121 -312 -3 -432 l40 -41 -40 -104 c-22 -56 -52 -139
-66 -184 l-27 -81 -167 44 c-297 77 -681 148 -1024 188 -32 4 -58 10 -57 14 0
3 41 37 90 75 414 319 988 924 1206 1271 97 154 133 298 114 452 -27 224 -126
367 -299 430 -54 20 -90 26 -187 28 -66 2 -149 0 -185 -5z m4 -632 c-88 -150
-546 -645 -814 -882 -201 -177 -451 -367 -458 -347 -8 23 191 750 219 803 15
28 102 81 281 170 180 90 358 160 538 211 215 60 247 66 234 45z m2119 -1117
c37 -12 67 -25 67 -29 -1 -11 -118 -96 -216 -155 -229 -138 -754 -417 -754
-400 0 17 273 540 288 551 22 16 101 40 177 52 33 5 130 7 215 5 123 -2 169
-7 223 -24z"/>
</g>
</svg>
